<svg width="100" height="100" viewBox="0 0 100 100" fill="none" xmlns="http://www.w3.org/2000/svg">
<rect width="100" height="100" fill="white"/>
<g clip-path="url(#clip0_10_26)">
<path d="M57.2376 68.8475C57.2694 69.2141 57.1601 69.5791 56.9319 69.8678C56.7038 70.1565 56.3741 70.3473 56.01 70.4011C55.646 70.455 55.2751 70.3678 54.9732 70.1575C54.6712 69.9472 54.4609 69.6296 54.3852 69.2695L54.3593 69.0908L52.2363 43.9541C52.2045 43.5874 52.3139 43.2225 52.542 42.9338C52.7702 42.6451 53.0999 42.4543 53.464 42.4005C53.828 42.3466 54.1988 42.4338 54.5008 42.6441C54.8028 42.8544 55.0131 43.172 55.0888 43.5321L55.1147 43.7108L57.2376 68.8475ZM66.7858 65.3828C66.8992 65.7329 66.8746 66.1131 66.7172 66.4457C66.5598 66.7784 66.2813 67.0384 65.9387 67.1727C65.5961 67.3069 65.2151 67.3054 64.8736 67.1683C64.5321 67.0312 64.2558 66.7689 64.1011 66.435L64.0395 66.2788L56.4232 42.9349C56.3063 42.5838 56.3286 42.2013 56.4855 41.8663C56.6424 41.5312 56.9218 41.2691 57.2663 41.134C57.6107 40.9989 57.9938 41.0012 58.3367 41.1403C58.6795 41.2794 58.9559 41.5447 59.1088 41.8816L59.1694 42.039L66.7858 65.3828Z" fill="#F24E1E"/>
</g>
<g clip-path="url(#clip1_10_26)">
<path d="M46.3745 19.8918C45.73 20.2071 45.1122 20.6058 44.5223 21.0341C42.1644 22.7393 40.1846 25.2727 39.1636 28.0877C38.1419 30.9012 38.2974 33.582 39.41 35.7392C40.2791 37.4208 41.7027 38.7315 43.3989 39.645L34.1281 65.1656L37.2067 66.2835L46.4704 40.7592C48.3575 41.1468 50.2904 41.0549 52.036 40.3228C54.2736 39.3821 56.1129 37.4257 57.1345 34.6121C58.1576 31.7979 58.2646 28.5845 57.5503 25.7637C56.8359 22.9429 55.2434 20.3513 52.5025 19.356C51.1342 18.8591 49.7378 18.853 48.3721 19.1786C47.6819 19.3436 47.0131 19.5823 46.3745 19.8918ZM47.7361 22.8061C48.1822 22.5906 48.6231 22.4059 49.054 22.3022C49.9109 22.0882 50.7197 22.1133 51.4124 22.3649C52.7992 22.8672 53.9303 24.3838 54.4717 26.5381C55.0139 28.6902 54.8845 31.339 54.1081 33.4769C53.3318 35.6148 52.1837 36.7672 50.8121 37.346C49.4389 37.9254 47.7566 37.9001 46.0014 37.2628C44.2483 36.6262 42.9417 35.5661 42.2603 34.2406C41.5789 32.9151 41.4399 31.2954 42.2162 29.1574C42.9925 27.0195 44.5914 24.9056 46.3881 23.6028C46.8379 23.2737 47.2886 23.0223 47.7361 22.8061Z" fill="#F24E1E"/>
</g>
<path d="M29.71 86V79.33H34.28V80.58H31.33V82.03H33.89V83.29H31.33V84.75H34.28V86H29.71ZM38.0577 86L40.5777 79.33H42.3477L44.7077 86H43.0477L40.9177 79.71L41.7077 79.64L39.5877 86H38.0577ZM39.4777 84.56L39.8077 83.37H42.8377L42.9877 84.56H39.4777ZM49.3561 86V80.58H47.4861V79.33H52.8761V80.58H50.9761V86H49.3561ZM58.0352 86.13C57.7419 86.13 57.4619 86.0933 57.1952 86.02C56.9286 85.9533 56.6819 85.8667 56.4552 85.76V84.28C56.6819 84.4333 56.8886 84.5633 57.0752 84.67C57.2619 84.7767 57.4519 84.83 57.6452 84.83C57.9252 84.83 58.1486 84.7567 58.3152 84.61C58.4819 84.4633 58.5652 84.2267 58.5652 83.9V79.33H60.1852V83.97C60.1852 84.39 60.1219 84.74 59.9952 85.02C59.8686 85.2933 59.7019 85.5133 59.4952 85.68C59.2952 85.84 59.0652 85.9533 58.8052 86.02C58.5519 86.0933 58.2952 86.13 58.0352 86.13ZM64.0206 86L66.5406 79.33H68.3106L70.6706 86H69.0106L66.8806 79.71L67.6706 79.64L65.5506 86H64.0206ZM65.4406 84.56L65.7706 83.37H68.8006L68.9506 84.56H65.4406Z" fill="#F24E1E"/>
<defs>
<clipPath id="clip0_10_26">
<rect width="34.6648" height="34.6648" fill="white" transform="translate(82.3523 55.38) rotate(131.931)"/>
</clipPath>
<clipPath id="clip1_10_26">
<rect width="51.4669" height="51.4669" fill="white" transform="translate(10 29.7857) rotate(-25.0428)"/>
</clipPath>
</defs>
</svg>
